<svg width="85" height="72" viewBox="0 0 85 72" fill="none" xmlns="http://www.w3.org/2000/svg">
<path fill-rule="evenodd" clip-rule="evenodd" d="M3.68814 69.6543C3.68814 68.9151 3.08738 68.3102 2.34407 68.3102C1.6028 68.3102 1 68.9151 1 69.6543C1 70.3956 1.6028 71.0004 2.34407 71.0004C3.08738 71.0004 3.68814 70.3956 3.68814 69.6543Z" fill="#FF0000"/>
<path d="M3.68814 69.6543C3.68814 68.9151 3.08738 68.3102 2.34407 68.3102C1.6028 68.3102 1 68.9151 1 69.6543C1 70.3956 1.6028 71.0004 2.34407 71.0004C3.08738 71.0004 3.68814 70.3956 3.68814 69.6543" stroke="#FF0000"/>
<path fill-rule="evenodd" clip-rule="evenodd" d="M3.68814 56.1935C3.68814 55.4502 3.08738 54.8474 2.34407 54.8474C1.6028 54.8474 1 55.4502 1 56.1935C1 56.9327 1.6028 57.5355 2.34407 57.5355C3.08738 57.5355 3.68814 56.9327 3.68814 56.1935Z" fill="#FF0000"/>
<path d="M3.68814 56.1935C3.68814 55.4502 3.08738 54.8474 2.34407 54.8474C1.6028 54.8474 1 55.4502 1 56.1935C1 56.9327 1.6028 57.5355 2.34407 57.5355C3.08738 57.5355 3.68814 56.9327 3.68814 56.1935" stroke="#FF0000"/>
<path fill-rule="evenodd" clip-rule="evenodd" d="M3.68814 42.7299C3.68814 41.9886 3.08738 41.3858 2.34407 41.3858C1.6028 41.3858 1 41.9886 1 42.7299C1 43.4712 1.6028 44.074 2.34407 44.074C3.08738 44.074 3.68814 43.4712 3.68814 42.7299Z" fill="#FF0000"/>
<path d="M3.68814 42.7299C3.68814 41.9886 3.08738 41.3858 2.34407 41.3858C1.6028 41.3858 1 41.9886 1 42.7299C1 43.4712 1.6028 44.074 2.34407 44.074C3.08738 44.074 3.68814 43.4712 3.68814 42.7299" stroke="#FF0000"/>
<path fill-rule="evenodd" clip-rule="evenodd" d="M3.68814 29.2705C3.68814 28.5293 3.08738 27.9265 2.34407 27.9265C1.6028 27.9265 1 28.5293 1 29.2705C1 30.0098 1.6028 30.6146 2.34407 30.6146C3.08738 30.6146 3.68814 30.0098 3.68814 29.2705Z" fill="#FF0000"/>
<path d="M3.68814 29.2705C3.68814 28.5293 3.08738 27.9265 2.34407 27.9265C1.6028 27.9265 1 28.5293 1 29.2705C1 30.0098 1.6028 30.6146 2.34407 30.6146C3.08738 30.6146 3.68814 30.0098 3.68814 29.2705" stroke="#FF0000"/>
<path fill-rule="evenodd" clip-rule="evenodd" d="M3.68814 15.8058C3.68814 15.0666 3.08738 14.4638 2.34407 14.4638C1.6028 14.4638 1 15.0666 1 15.8058C1 16.5471 1.6028 17.1519 2.34407 17.1519C3.08738 17.1519 3.68814 16.5471 3.68814 15.8058Z" fill="#FF0000"/>
<path d="M3.68814 15.8058C3.68814 15.0666 3.08738 14.4638 2.34407 14.4638C1.6028 14.4638 1 15.0666 1 15.8058C1 16.5471 1.6028 17.1519 2.34407 17.1519C3.08738 17.1519 3.68814 16.5471 3.68814 15.8058" stroke="#FF0000"/>
<path fill-rule="evenodd" clip-rule="evenodd" d="M3.68814 2.34407C3.68814 1.60279 3.08738 0.999997 2.34407 0.999997C1.6028 0.999997 1 1.60279 1 2.34407C1 3.08534 1.6028 3.68814 2.34407 3.68814C3.08738 3.68814 3.68814 3.08534 3.68814 2.34407Z" fill="#FF0000"/>
<path d="M3.68814 2.34407C3.68814 1.60279 3.08738 0.999997 2.34407 0.999997C1.6028 0.999997 1 1.60279 1 2.34407C1 3.08534 1.6028 3.68814 2.34407 3.68814C3.08738 3.68814 3.68814 3.08534 3.68814 2.34407" stroke="#FF0000"/>
<path fill-rule="evenodd" clip-rule="evenodd" d="M17.151 69.6543C17.151 68.9151 16.5503 68.3102 15.807 68.3102C15.0637 68.3102 14.4629 68.9151 14.4629 69.6543C14.4629 70.3956 15.0637 71.0004 15.807 71.0004C16.5503 71.0004 17.151 70.3956 17.151 69.6543Z" fill="#FF0000"/>
<path d="M17.151 69.6543C17.151 68.9151 16.5503 68.3102 15.807 68.3102C15.0636 68.3102 14.4629 68.9151 14.4629 69.6543C14.4629 70.3956 15.0637 71.0004 15.807 71.0004C16.5503 71.0004 17.151 70.3956 17.151 69.6543" stroke="#FF0000"/>
<path fill-rule="evenodd" clip-rule="evenodd" d="M17.151 56.1935C17.151 55.4502 16.5503 54.8474 15.807 54.8474C15.0637 54.8474 14.4629 55.4502 14.4629 56.1935C14.4629 56.9327 15.0637 57.5355 15.807 57.5355C16.5503 57.5355 17.151 56.9327 17.151 56.1935Z" fill="#FF0000"/>
<path d="M17.151 56.1935C17.151 55.4502 16.5503 54.8474 15.807 54.8474C15.0636 54.8474 14.4629 55.4502 14.4629 56.1935C14.4629 56.9327 15.0637 57.5355 15.807 57.5355C16.5503 57.5355 17.151 56.9327 17.151 56.1935" stroke="#FF0000"/>
<path fill-rule="evenodd" clip-rule="evenodd" d="M17.151 42.7299C17.151 41.9886 16.5503 41.3858 15.807 41.3858C15.0637 41.3858 14.4629 41.9886 14.4629 42.7299C14.4629 43.4712 15.0637 44.074 15.807 44.074C16.5503 44.074 17.151 43.4712 17.151 42.7299Z" fill="#FF0000"/>
<path d="M17.151 42.7299C17.151 41.9886 16.5503 41.3858 15.807 41.3858C15.0636 41.3858 14.4629 41.9886 14.4629 42.7299C14.4629 43.4712 15.0637 44.074 15.807 44.074C16.5503 44.074 17.151 43.4712 17.151 42.7299" stroke="#FF0000"/>
<path figll-rule="evenodd" clip-rule="evenodd" d="M17.151 29.2705C17.151 28.5293 16.5503 27.9265 15.807 27.9265C15.0637 27.9265 14.4629 28.5293 14.4629 29.2705C14.4629 30.0098 15.0637 30.6146 15.807 30.6146C16.5503 30.6146 17.151 30.0098 17.151 29.2705Z" fill="#FF0000"/>
<path d="M17.151 29.2705C17.151 28.5293 16.5503 27.9265 15.807 27.9265C15.0636 27.9265 14.4629 28.5293 14.4629 29.2705C14.4629 30.0098 15.0637 30.6146 15.807 30.6146C16.5503 30.6146 17.151 30.0098 17.151 29.2705" stroke="#FF0000"/>
<path fill-rule="evenodd" clip-rule="evenodd" d="M17.151 15.8058C17.151 15.0666 16.5503 14.4638 15.807 14.4638C15.0637 14.4638 14.4629 15.0666 14.4629 15.8058C14.4629 16.5471 15.0637 17.1519 15.807 17.1519C16.5503 17.1519 17.151 16.5471 17.151 15.8058Z" fill="#FF0000"/>
<path d="M17.151 15.8058C17.151 15.0666 16.5503 14.4638 15.807 14.4638C15.0636 14.4638 14.4629 15.0666 14.4629 15.8058C14.4629 16.5471 15.0637 17.1519 15.807 17.1519C16.5503 17.1519 17.151 16.5471 17.151 15.8058" stroke="#FF0000"/>
<path fill-rule="evenodd" clip-rule="evenodd" d="M17.151 2.34407C17.151 1.60279 16.5503 0.999997 15.807 0.999997C15.0637 0.999997 14.4629 1.60279 14.4629 2.34407C14.4629 3.08534 15.0637 3.68814 15.807 3.68814C16.5503 3.68814 17.151 3.08534 17.151 2.34407Z" fill="#FF0000"/>
<path d="M17.151 2.34407C17.151 1.60279 16.5503 0.999997 15.807 0.999997C15.0636 0.999997 14.4629 1.60279 14.4629 2.34407C14.4629 3.08534 15.0637 3.68814 15.807 3.68814C16.5503 3.68814 17.151 3.08534 17.151 2.34407" stroke="#FF0000"/>
<path fill-rule="evenodd" clip-rule="evenodd" d="M30.6139 69.6543C30.6139 68.9151 30.0111 68.3102 29.2699 68.3102C28.5286 68.3102 27.9258 68.9151 27.9258 69.6543C27.9258 70.3956 28.5286 71.0004 29.2699 71.0004C30.0111 71.0004 30.6139 70.3956 30.6139 69.6543Z" fill="#FF0000"/>
<path d="M30.6139 69.6543C30.6139 68.9151 30.0111 68.3102 29.2699 68.3102C28.5286 68.3102 27.9258 68.9151 27.9258 69.6543C27.9258 70.3956 28.5286 71.0004 29.2699 71.0004C30.0111 71.0004 30.6139 70.3956 30.6139 69.6543" stroke="#FF0000"/>
<path fill-rule="evenodd" clip-rule="evenodd" d="M30.6139 56.1935C30.6139 55.4502 30.0111 54.8474 29.2699 54.8474C28.5286 54.8474 27.9258 55.4502 27.9258 56.1935C27.9258 56.9327 28.5286 57.5355 29.2699 57.5355C30.0111 57.5355 30.6139 56.9327 30.6139 56.1935Z" fill="#FF0000"/>
<path d="M30.6139 56.1935C30.6139 55.4502 30.0111 54.8474 29.2699 54.8474C28.5286 54.8474 27.9258 55.4502 27.9258 56.1935C27.9258 56.9327 28.5286 57.5355 29.2699 57.5355C30.0111 57.5355 30.6139 56.9327 30.6139 56.1935" stroke="#FF0000"/>
<path fill-rule="evenodd" clip-rule="evenodd" d="M30.6139 42.7299C30.6139 41.9886 30.0111 41.3858 29.2699 41.3858C28.5286 41.3858 27.9258 41.9886 27.9258 42.7299C27.9258 43.4712 28.5286 44.074 29.2699 44.074C30.0111 44.074 30.6139 43.4712 30.6139 42.7299Z" fill="#FF0000"/>
<path d="M30.6139 42.7299C30.6139 41.9886 30.0111 41.3858 29.2699 41.3858C28.5286 41.3858 27.9258 41.9886 27.9258 42.7299C27.9258 43.4712 28.5286 44.074 29.2699 44.074C30.0111 44.074 30.6139 43.4712 30.6139 42.7299" stroke="#FF0000"/>
<path fill-rule="evenodd" clip-rule="evenodd" d="M30.6139 29.2705C30.6139 28.5293 30.0111 27.9265 29.2699 27.9265C28.5286 27.9265 27.9258 28.5293 27.9258 29.2705C27.9258 30.0098 28.5286 30.6146 29.2699 30.6146C30.0111 30.6146 30.6139 30.0098 30.6139 29.2705Z" fill="#FF0000"/>
<path d="M30.6139 29.2705C30.6139 28.5293 30.0111 27.9265 29.2699 27.9265C28.5286 27.9265 27.9258 28.5293 27.9258 29.2705C27.9258 30.0098 28.5286 30.6146 29.2699 30.6146C30.0111 30.6146 30.6139 30.0098 30.6139 29.2705" stroke="#FF0000"/>
<path fill-rule="evenodd" clip-rule="evenodd" d="M30.6139 15.8058C30.6139 15.0666 30.0111 14.4638 29.2699 14.4638C28.5286 14.4638 27.9258 15.0666 27.9258 15.8058C27.9258 16.5471 28.5286 17.1519 29.2699 17.1519C30.0111 17.1519 30.6139 16.5471 30.6139 15.8058Z" fill="#FF0000"/>
<path d="M30.6139 15.8058C30.6139 15.0666 30.0111 14.4638 29.2699 14.4638C28.5286 14.4638 27.9258 15.0666 27.9258 15.8058C27.9258 16.5471 28.5286 17.1519 29.2699 17.1519C30.0111 17.1519 30.6139 16.5471 30.6139 15.8058" stroke="#FF0000"/>
<path fill-rule="evenodd" clip-rule="evenodd" d="M30.6139 2.34407C30.6139 1.60279 30.0111 0.999997 29.2699 0.999997C28.5286 0.999997 27.9258 1.60279 27.9258 2.34407C27.9258 3.08534 28.5286 3.68814 29.2699 3.68814C30.0111 3.68814 30.6139 3.08534 30.6139 2.34407Z" fill="#FF0000"/>
<path d="M30.6139 2.34407C30.6139 1.60279 30.0111 0.999997 29.2699 0.999997C28.5286 0.999997 27.9258 1.60279 27.9258 2.34407C27.9258 3.08534 28.5286 3.68814 29.2699 3.68814C30.0111 3.68814 30.6139 3.08534 30.6139 2.34407" stroke="#FF0000"/>
<path fill-rule="evenodd" clip-rule="evenodd" d="M44.0749 69.6543C44.0749 68.9151 43.4741 68.3102 42.7308 68.3102C41.9875 68.3102 41.3867 68.9151 41.3867 69.6543C41.3867 70.3956 41.9875 71.0004 42.7308 71.0004C43.4741 71.0004 44.0749 70.3956 44.0749 69.6543Z" fill="#FF0000"/>
<path d="M44.0749 69.6543C44.0749 68.9151 43.4741 68.3102 42.7308 68.3102C41.9875 68.3102 41.3867 68.9151 41.3867 69.6543C41.3867 70.3956 41.9875 71.0004 42.7308 71.0004C43.4741 71.0004 44.0749 70.3956 44.0749 69.6543" stroke="#FF0000"/>
<path fill-rule="evenodd" clip-rule="evenodd" d="M44.0749 56.1935C44.0749 55.4502 43.4741 54.8474 42.7308 54.8474C41.9875 54.8474 41.3867 55.4502 41.3867 56.1935C41.3867 56.9327 41.9875 57.5355 42.7308 57.5355C43.4741 57.5355 44.0749 56.9327 44.0749 56.1935Z" fill="#FF0000"/>
<path d="M44.0749 56.1935C44.0749 55.4502 43.4741 54.8474 42.7308 54.8474C41.9875 54.8474 41.3867 55.4502 41.3867 56.1935C41.3867 56.9327 41.9875 57.5355 42.7308 57.5355C43.4741 57.5355 44.0749 56.9327 44.0749 56.1935" stroke="#FF0000"/>
<path fill-rule="evenodd" clip-rule="evenodd" d="M44.0749 42.7299C44.0749 41.9886 43.4741 41.3858 42.7308 41.3858C41.9875 41.3858 41.3867 41.9886 41.3867 42.7299C41.3867 43.4712 41.9875 44.074 42.7308 44.074C43.4741 44.074 44.0749 43.4712 44.0749 42.7299Z" fill="#FF0000"/>
<path d="M44.0749 42.7299C44.0749 41.9886 43.4741 41.3858 42.7308 41.3858C41.9875 41.3858 41.3867 41.9886 41.3867 42.7299C41.3867 43.4712 41.9875 44.074 42.7308 44.074C43.4741 44.074 44.0749 43.4712 44.0749 42.7299" stroke="#FF0000"/>
<path fill-rule="evenodd" clip-rule="evenodd" d="M44.0749 29.2705C44.0749 28.5292 43.4741 27.9264 42.7308 27.9264C41.9875 27.9264 41.3867 28.5292 41.3867 29.2705C41.3867 30.0098 41.9875 30.6146 42.7308 30.6146C43.4741 30.6146 44.0749 30.0098 44.0749 29.2705Z" fill="#FF0000"/>
<path d="M44.0749 29.2705C44.0749 28.5292 43.4741 27.9264 42.7308 27.9264C41.9875 27.9264 41.3867 28.5292 41.3867 29.2705C41.3867 30.0098 41.9875 30.6146 42.7308 30.6146C43.4741 30.6146 44.0749 30.0098 44.0749 29.2705" stroke="#FF0000"/>
<path fill-rule="evenodd" clip-rule="evenodd" d="M44.0749 15.8058C44.0749 15.0666 43.4741 14.4638 42.7308 14.4638C41.9875 14.4638 41.3867 15.0666 41.3867 15.8058C41.3867 16.5471 41.9875 17.1519 42.7308 17.1519C43.4741 17.1519 44.0749 16.5471 44.0749 15.8058Z" fill="#FF0000"/>
<path d="M44.0749 15.8058C44.0749 15.0666 43.4741 14.4638 42.7308 14.4638C41.9875 14.4638 41.3867 15.0666 41.3867 15.8058C41.3867 16.5471 41.9875 17.1519 42.7308 17.1519C43.4741 17.1519 44.0749 16.5471 44.0749 15.8058" stroke="#FF0000"/>
<path fill-rule="evenodd" clip-rule="evenodd" d="M44.0749 2.34407C44.0749 1.60279 43.4741 0.999997 42.7308 0.999997C41.9875 0.999997 41.3867 1.60279 41.3867 2.34407C41.3867 3.08534 41.9875 3.68814 42.7308 3.68814C43.4741 3.68814 44.0749 3.08534 44.0749 2.34407Z" fill="#FF0000"/>
<path d="M44.0749 2.34407C44.0749 1.60279 43.4741 0.999997 42.7308 0.999997C41.9875 0.999997 41.3867 1.60279 41.3867 2.34407C41.3867 3.08534 41.9875 3.68814 42.7308 3.68814C43.4741 3.68814 44.0749 3.08534 44.0749 2.34407" stroke="#FF0000"/>
<path fill-rule="evenodd" clip-rule="evenodd" d="M57.5397 69.6543C57.5397 68.9151 56.9369 68.3102 56.1956 68.3102C55.4523 68.3102 54.8516 68.9151 54.8516 69.6543C54.8516 70.3956 55.4523 71.0004 56.1956 71.0004C56.9369 71.0004 57.5397 70.3956 57.5397 69.6543Z" fill="#FF0000"/>
<path d="M57.5397 69.6543C57.5397 68.9151 56.9369 68.3102 56.1956 68.3102C55.4523 68.3102 54.8516 68.9151 54.8516 69.6543C54.8516 70.3956 55.4523 71.0004 56.1956 71.0004C56.9369 71.0004 57.5397 70.3956 57.5397 69.6543" stroke="#FF0000"/>
<path fill-rule="evenodd" clip-rule="evenodd" d="M57.5397 56.1935C57.5397 55.4502 56.9369 54.8474 56.1956 54.8474C55.4523 54.8474 54.8516 55.4502 54.8516 56.1935C54.8516 56.9327 55.4523 57.5355 56.1956 57.5355C56.9369 57.5355 57.5397 56.9327 57.5397 56.1935Z" fill="#FF0000"/>
<path d="M57.5397 56.1935C57.5397 55.4502 56.9369 54.8474 56.1956 54.8474C55.4523 54.8474 54.8516 55.4502 54.8516 56.1935C54.8516 56.9327 55.4523 57.5355 56.1956 57.5355C56.9369 57.5355 57.5397 56.9327 57.5397 56.1935" stroke="#FF0000"/>
<path fill-rule="evenodd" clip-rule="evenodd" d="M57.5397 42.7299C57.5397 41.9886 56.9369 41.3858 56.1956 41.3858C55.4523 41.3858 54.8516 41.9886 54.8516 42.7299C54.8516 43.4712 55.4523 44.074 56.1956 44.074C56.9369 44.074 57.5397 43.4712 57.5397 42.7299Z" fill="#FF0000"/>
<path d="M57.5397 42.7299C57.5397 41.9886 56.9369 41.3858 56.1956 41.3858C55.4523 41.3858 54.8516 41.9886 54.8516 42.7299C54.8516 43.4712 55.4523 44.074 56.1956 44.074C56.9369 44.074 57.5397 43.4712 57.5397 42.7299" stroke="#FF0000"/>
<path fill-rule="evenodd" clip-rule="evenodd" d="M57.5397 29.2705C57.5397 28.5292 56.9369 27.9264 56.1956 27.9264C55.4523 27.9264 54.8516 28.5292 54.8516 29.2705C54.8516 30.0098 55.4523 30.6146 56.1956 30.6146C56.9369 30.6146 57.5397 30.0098 57.5397 29.2705Z" fill="#FF0000"/>
<path d="M57.5397 29.2705C57.5397 28.5292 56.9369 27.9264 56.1956 27.9264C55.4523 27.9264 54.8516 28.5292 54.8516 29.2705C54.8516 30.0098 55.4523 30.6146 56.1956 30.6146C56.9369 30.6146 57.5397 30.0098 57.5397 29.2705" stroke="#FF0000"/>
<path fill-rule="evenodd" clip-rule="evenodd" d="M57.5397 15.8058C57.5397 15.0666 56.9369 14.4638 56.1956 14.4638C55.4523 14.4638 54.8516 15.0666 54.8516 15.8058C54.8516 16.5471 55.4523 17.1519 56.1956 17.1519C56.9369 17.1519 57.5397 16.5471 57.5397 15.8058Z" fill="#FF0000"/>
<path d="M57.5397 15.8058C57.5397 15.0666 56.9369 14.4638 56.1956 14.4638C55.4523 14.4638 54.8516 15.0666 54.8516 15.8058C54.8516 16.5471 55.4523 17.1519 56.1956 17.1519C56.9369 17.1519 57.5397 16.5471 57.5397 15.8058" stroke="#FF0000"/>
<path fill-rule="evenodd" clip-rule="evenodd" d="M57.5397 2.34407C57.5397 1.60279 56.9369 0.999997 56.1956 0.999997C55.4523 0.999997 54.8516 1.60279 54.8516 2.34407C54.8516 3.08534 55.4523 3.68814 56.1956 3.68814C56.9369 3.68814 57.5397 3.08534 57.5397 2.34407Z" fill="#FF0000"/>
<path d="M57.5397 2.34407C57.5397 1.60279 56.9369 0.999997 56.1956 0.999997C55.4523 0.999997 54.8516 1.60279 54.8516 2.34407C54.8516 3.08534 55.4523 3.68814 56.1956 3.68814C56.9369 3.68814 57.5397 3.08534 57.5397 2.34407" stroke="#FF0000"/>
<path fill-rule="evenodd" clip-rule="evenodd" d="M70.9987 69.6543C70.9987 68.9151 70.3979 68.3102 69.6546 68.3102C68.9154 68.3102 68.3105 68.9151 68.3105 69.6543C68.3105 70.3956 68.9154 71.0004 69.6546 71.0004C70.3979 71.0004 70.9987 70.3956 70.9987 69.6543Z" fill="#FF0000"/>
<path d="M70.9987 69.6543C70.9987 68.9151 70.3979 68.3102 69.6546 68.3102C68.9154 68.3102 68.3105 68.9151 68.3105 69.6543C68.3105 70.3956 68.9154 71.0004 69.6546 71.0004C70.3979 71.0004 70.9987 70.3956 70.9987 69.6543" stroke="#FF0000"/>
<path fill-rule="evenodd" clip-rule="evenodd" d="M70.9987 56.1935C70.9987 55.4502 70.3979 54.8474 69.6546 54.8474C68.9154 54.8474 68.3105 55.4502 68.3105 56.1935C68.3105 56.9327 68.9154 57.5355 69.6546 57.5355C70.3979 57.5355 70.9987 56.9327 70.9987 56.1935Z" fill="#FF0000"/>
<path d="M70.9987 56.1935C70.9987 55.4502 70.3979 54.8474 69.6546 54.8474C68.9154 54.8474 68.3105 55.4502 68.3105 56.1935C68.3105 56.9327 68.9154 57.5355 69.6546 57.5355C70.3979 57.5355 70.9987 56.9327 70.9987 56.1935" stroke="#FF0000"/>
<path fill-rule="evenodd" clip-rule="evenodd" d="M70.9987 42.7299C70.9987 41.9886 70.3979 41.3858 69.6546 41.3858C68.9154 41.3858 68.3105 41.9886 68.3105 42.7299C68.3105 43.4712 68.9154 44.074 69.6546 44.074C70.3979 44.074 70.9987 43.4712 70.9987 42.7299Z" fill="#FF0000"/>
<path d="M70.9987 42.7299C70.9987 41.9886 70.3979 41.3858 69.6546 41.3858C68.9154 41.3858 68.3105 41.9886 68.3105 42.7299C68.3105 43.4712 68.9154 44.074 69.6546 44.074C70.3979 44.074 70.9987 43.4712 70.9987 42.7299" stroke="#FF0000"/>
<path fill-rule="evenodd" clip-rule="evenodd" d="M70.9987 29.2705C70.9987 28.5292 70.3979 27.9264 69.6546 27.9264C68.9154 27.9264 68.3105 28.5292 68.3105 29.2705C68.3105 30.0098 68.9154 30.6146 69.6546 30.6146C70.3979 30.6146 70.9987 30.0098 70.9987 29.2705Z" fill="#FF0000"/>
<path d="M70.9987 29.2705C70.9987 28.5292 70.3979 27.9264 69.6546 27.9264C68.9154 27.9264 68.3105 28.5292 68.3105 29.2705C68.3105 30.0098 68.9154 30.6146 69.6546 30.6146C70.3979 30.6146 70.9987 30.0098 70.9987 29.2705" stroke="#FF0000"/>
<path fill-rule="evenodd" clip-rule="evenodd" d="M70.9987 15.8058C70.9987 15.0666 70.3979 14.4638 69.6546 14.4638C68.9154 14.4638 68.3105 15.0666 68.3105 15.8058C68.3105 16.5471 68.9154 17.1519 69.6546 17.1519C70.3979 17.1519 70.9987 16.5471 70.9987 15.8058Z" fill="#FF0000"/>
<path d="M70.9987 15.8058C70.9987 15.0666 70.3979 14.4638 69.6546 14.4638C68.9154 14.4638 68.3105 15.0666 68.3105 15.8058C68.3105 16.5471 68.9154 17.1519 69.6546 17.1519C70.3979 17.1519 70.9987 16.5471 70.9987 15.8058" stroke="#FF0000"/>
<path fill-rule="evenodd" clip-rule="evenodd" d="M70.9987 2.34407C70.9987 1.60279 70.3979 0.999997 69.6546 0.999997C68.9154 0.999997 68.3105 1.60279 68.3105 2.34407C68.3105 3.08534 68.9154 3.68814 69.6546 3.68814C70.3979 3.68814 70.9987 3.08534 70.9987 2.34407Z" fill="#FF0000"/>
<path d="M70.9987 2.34407C70.9987 1.60279 70.3979 0.999997 69.6546 0.999997C68.9154 0.999997 68.3105 1.60279 68.3105 2.34407C68.3105 3.08534 68.9154 3.68814 69.6546 3.68814C70.3979 3.68814 70.9987 3.08534 70.9987 2.34407" stroke="#FF0000"/>
<path fill-rule="evenodd" clip-rule="evenodd" d="M84.4635 69.6543C84.4635 68.9151 83.8628 68.3102 83.1195 68.3102C82.3762 68.3102 81.7754 68.9151 81.7754 69.6543C81.7754 70.3956 82.3762 71.0004 83.1195 71.0004C83.8628 71.0004 84.4635 70.3956 84.4635 69.6543Z" fill="#FF0000"/>
<path d="M84.4635 69.6543C84.4635 68.9151 83.8628 68.3102 83.1195 68.3102C82.3761 68.3102 81.7754 68.9151 81.7754 69.6543C81.7754 70.3956 82.3762 71.0004 83.1195 71.0004C83.8628 71.0004 84.4635 70.3956 84.4635 69.6543" stroke="#FF0000"/>
<path fill-rule="evenodd" clip-rule="evenodd" d="M84.4635 56.1935C84.4635 55.4502 83.8628 54.8474 83.1195 54.8474C82.3762 54.8474 81.7754 55.4502 81.7754 56.1935C81.7754 56.9327 82.3762 57.5355 83.1195 57.5355C83.8628 57.5355 84.4635 56.9327 84.4635 56.1935Z" fill="#FF0000"/>
<path d="M84.4635 56.1935C84.4635 55.4502 83.8628 54.8474 83.1195 54.8474C82.3761 54.8474 81.7754 55.4502 81.7754 56.1935C81.7754 56.9327 82.3762 57.5355 83.1195 57.5355C83.8628 57.5355 84.4635 56.9327 84.4635 56.1935" stroke="#FF0000"/>
<path fill-rule="evenodd" clip-rule="evenodd" d="M84.4635 42.7299C84.4635 41.9886 83.8628 41.3858 83.1195 41.3858C82.3762 41.3858 81.7754 41.9886 81.7754 42.7299C81.7754 43.4712 82.3762 44.074 83.1195 44.074C83.8628 44.074 84.4635 43.4712 84.4635 42.7299Z" fill="#FF0000"/>
<path d="M84.4635 42.7299C84.4635 41.9886 83.8628 41.3858 83.1195 41.3858C82.3761 41.3858 81.7754 41.9886 81.7754 42.7299C81.7754 43.4712 82.3762 44.074 83.1195 44.074C83.8628 44.074 84.4635 43.4712 84.4635 42.7299" stroke="#FF0000"/>
<path fill-rule="evenodd" clip-rule="evenodd" d="M84.4635 29.2705C84.4635 28.5292 83.8628 27.9264 83.1195 27.9264C82.3762 27.9264 81.7754 28.5292 81.7754 29.2705C81.7754 30.0098 82.3762 30.6146 83.1195 30.6146C83.8628 30.6146 84.4635 30.0098 84.4635 29.2705Z" fill="#FF0000"/>
<path d="M84.4635 29.2705C84.4635 28.5292 83.8628 27.9264 83.1195 27.9264C82.3761 27.9264 81.7754 28.5292 81.7754 29.2705C81.7754 30.0098 82.3762 30.6146 83.1195 30.6146C83.8628 30.6146 84.4635 30.0098 84.4635 29.2705" stroke="#FF0000"/>
<path fill-rule="evenodd" clip-rule="evenodd" d="M84.4635 15.8058C84.4635 15.0666 83.8628 14.4638 83.1195 14.4638C82.3762 14.4638 81.7754 15.0666 81.7754 15.8058C81.7754 16.5471 82.3762 17.1519 83.1195 17.1519C83.8628 17.1519 84.4635 16.5471 84.4635 15.8058Z" fill="#FF0000"/>
<path d="M84.4635 15.8058C84.4635 15.0666 83.8628 14.4638 83.1195 14.4638C82.3761 14.4638 81.7754 15.0666 81.7754 15.8058C81.7754 16.5471 82.3762 17.1519 83.1195 17.1519C83.8628 17.1519 84.4635 16.5471 84.4635 15.8058" stroke="#FF0000"/>
<path fill-rule="evenodd" clip-rule="evenodd" d="M84.4635 2.34407C84.4635 1.60279 83.8628 0.999997 83.1195 0.999997C82.3762 0.999997 81.7754 1.60279 81.7754 2.34407C81.7754 3.08534 82.3762 3.68814 83.1195 3.68814C83.8628 3.68814 84.4635 3.08534 84.4635 2.34407Z" fill="#FF0000"/>
<path d="M84.4635 2.34407C84.4635 1.60279 83.8628 0.999997 83.1195 0.999997C82.3761 0.999997 81.7754 1.60279 81.7754 2.34407C81.7754 3.08534 82.3762 3.68814 83.1195 3.68814C83.8628 3.68814 84.4635 3.08534 84.4635 2.34407" stroke="#FF0000"/>
</svg>
