<svg width="129" height="43" viewBox="0 0 129 43" fill="none" xmlns="http://www.w3.org/2000/svg">
<rect x="2" y="2" width="125" height="39" fill="#FF0000" stroke="#FF0000" stroke-width="4"/>
<path d="M22.4828 14.3951C24.2281 14.3951 25.7533 14.7214 27.0585 15.3739C28.3637 16.0265 29.3729 16.9599 30.0862 18.174C30.7995 19.3729 31.1561 20.7692 31.1561 22.3627C31.1561 23.9714 30.7919 25.3752 30.0634 26.5742C29.3349 27.7731 28.2954 28.7065 26.9447 29.3742C25.6091 30.0268 24.0535 30.3531 22.2779 30.3531H15.3574V14.3951H22.4828ZM22.6194 26.2555C23.5755 26.2555 24.3343 25.9064 24.8958 25.2083C25.4725 24.5102 25.7609 23.5768 25.7609 22.4082C25.7609 21.2245 25.4498 20.2759 24.8275 19.5626C24.2205 18.8494 23.4009 18.4927 22.3689 18.4927H20.6388V26.2555H22.6194Z" fill="white"/>
<path d="M35.4083 14.3951H49.6135V17.6959L42.1694 26.301H49.7728V30.3531H35.1351V27.0522L42.5792 18.4472H35.4083V14.3951Z" fill="white"/>
<path d="M54.5447 14.3951H68.0442V18.4016H59.8261V20.3594H67.293V24.366H59.8261V26.3465H68.2491V30.3531H54.5447V14.3951Z" fill="white"/>
<path d="M73.4492 14.3951H79.0493L83.0104 22.7269L86.9487 14.3951H92.5488V30.3531H87.9276V21.6115L84.7177 28.8051H81.2803L78.0704 21.6115V30.3531H73.4492V14.3951Z" fill="white"/>
<path d="M105.99 14.0536C107.66 14.0536 109.162 14.4102 110.498 15.1235C111.833 15.8368 112.873 16.8233 113.616 18.0829C114.375 19.3426 114.755 20.7616 114.755 22.3399C114.755 23.9335 114.375 25.3676 113.616 26.6425C112.873 27.9173 111.833 28.9189 110.498 29.6474C109.162 30.3607 107.66 30.7174 105.99 30.7174C104.321 30.7174 102.818 30.3607 101.483 29.6474C100.147 28.9189 99.1002 27.9173 98.3413 26.6425C97.5977 25.3676 97.2259 23.9335 97.2259 22.3399C97.2259 20.7464 97.5977 19.3198 98.3413 18.0602C99.1002 16.8005 100.147 15.8216 101.483 15.1235C102.818 14.4102 104.321 14.0536 105.99 14.0536ZM106.059 18.4472C105.452 18.4472 104.882 18.6217 104.351 18.9708C103.835 19.3046 103.418 19.7675 103.099 20.3594C102.796 20.9513 102.644 21.6191 102.644 22.3627C102.644 23.1064 102.796 23.7817 103.099 24.3888C103.418 24.9806 103.835 25.4511 104.351 25.8002C104.882 26.1492 105.452 26.3238 106.059 26.3238C106.666 26.3238 107.22 26.1568 107.72 25.8229C108.221 25.4739 108.616 24.9958 108.904 24.3888C109.193 23.7817 109.337 23.1064 109.337 22.3627C109.337 21.6191 109.193 20.9513 108.904 20.3594C108.616 19.7524 108.221 19.2819 107.72 18.948C107.22 18.6141 106.666 18.4472 106.059 18.4472Z" fill="white"/>
</svg>
